<svg width="197" height="28" viewBox="0 0 197 28" fill="none" xmlns="http://www.w3.org/2000/svg">
<path d="M189.436 18.4929C187.332 18.4929 185.936 16.8887 185.936 14.4858C185.936 12.083 187.332 10.4788 189.436 10.4788C191.54 10.4788 192.936 12.083 192.936 14.4858C192.936 16.8887 191.54 18.4929 189.436 18.4929ZM192.936 0V9.37724H192.846C192.372 7.83503 190.625 6.76786 188.487 6.76786C184.457 6.76786 181.789 9.8523 181.789 14.4858C181.789 19.1194 184.457 22.2038 188.487 22.2038C190.619 22.2038 192.372 21.1367 192.846 19.56H192.936L193.472 21.8458H197V0H192.936ZM175.085 7.12588V15.0504C175.085 17.0677 173.902 18.4034 172.059 18.4034C170.368 18.4034 169.24 17.1297 169.24 15.2294V7.12588H165.176V16.6271C165.176 19.98 167.308 22.2107 170.512 22.2107C172.678 22.2107 174.452 21.1436 174.961 19.5669H175.078L175.615 21.8527H179.142V7.12588H175.078H175.085ZM154.924 18.3758C152.73 18.3758 151.279 16.8061 151.279 14.4583C151.279 12.1106 152.73 10.5408 154.924 10.5408C157.117 10.5408 158.541 12.1174 158.541 14.4583C158.541 16.7992 157.117 18.3758 154.924 18.3758ZM154.924 22.1763C159.579 22.1763 162.694 19.0919 162.694 14.4583C162.694 9.82476 159.579 6.74032 154.924 6.74032C150.269 6.74032 147.126 9.82476 147.126 14.4583C147.126 19.0919 150.269 22.1763 154.924 22.1763ZM140.429 21.8527H144.493V0H140.429V21.8458V21.8527ZM131.503 22.2107C134.412 22.2107 137.107 20.4619 138.173 17.8181L134.673 16.331C134.226 17.5496 132.954 18.4102 131.469 18.4102C129.186 18.4102 127.701 16.8405 127.701 14.4927C127.701 12.145 129.186 10.5752 131.469 10.5752C132.947 10.5752 134.226 11.4358 134.673 12.682L138.173 11.1673C137.107 8.52352 134.405 6.77475 131.503 6.77475C126.731 6.77475 123.561 9.85919 123.561 14.4927C123.561 19.1263 126.731 22.2107 131.503 22.2107ZM113.831 18.2657C112.614 18.2657 111.934 17.6736 111.934 16.6615V10.6923H116.025V7.13276H111.934V2.5543H107.87V16.8887C107.87 20.0626 109.706 21.8458 112.91 21.8458H116.259V18.2519H113.824L113.831 18.2657ZM98.2085 10.2516C100.223 10.2516 101.44 11.4083 101.619 13.398H94.7979C95.0935 11.4083 96.3381 10.2516 98.2085 10.2516ZM105.47 14.4101C105.47 9.83853 102.596 6.78163 98.3254 6.78163C94.0552 6.78163 90.9747 9.86607 90.9747 14.4996C90.9747 19.1332 94.0002 22.2176 98.5661 22.2176C101.413 22.2176 104.019 20.6134 105.057 18.2381L101.853 16.9024C101.378 18.0591 100.161 18.7407 98.5592 18.7407C96.5444 18.7407 95.2104 17.6736 94.8254 15.7733H105.47V14.4101ZM86.0238 7.13965L82.8813 17.9145L79.7114 7.13965H75.0561L80.1858 21.8665H85.4943L90.624 7.13965H86.0306H86.0238ZM67.0522 18.3896C64.8586 18.3896 63.4078 16.8198 63.4078 14.4721C63.4078 12.1243 64.8586 10.5546 67.0522 10.5546C69.2457 10.5546 70.6691 12.1312 70.6691 14.4721C70.6691 16.8129 69.2457 18.3896 67.0522 18.3896ZM67.0522 22.1901C71.7074 22.1901 74.8223 19.1056 74.8223 14.4721C74.8223 9.83853 71.7074 6.7541 67.0522 6.7541C62.3969 6.7541 59.2545 9.83853 59.2545 14.4721C59.2545 19.1056 62.3969 22.1901 67.0522 22.1901ZM56.4077 7.13965C54.6268 7.13965 53.2034 8.24123 52.7908 9.9005H52.7633L52.227 7.13965H48.6994V21.8665H52.7633V15.2501C52.7633 12.8128 54.0079 11.2155 55.9333 11.2155H58.1887V7.14653H56.4077V7.13965ZM38.385 18.5066C36.2809 18.5066 34.885 16.9024 34.885 14.4996C34.885 12.0968 36.2809 10.4651 38.385 10.4651C40.4892 10.4651 41.8851 12.0968 41.8851 14.4996C41.8851 16.9024 40.4892 18.5066 38.385 18.5066ZM39.334 6.78163C37.2023 6.78163 35.4489 7.84879 34.9744 9.42544H34.885L34.3487 7.13965H30.8212V27.7393H34.885V19.6082H34.9744C35.4489 21.1504 37.1955 22.2176 39.334 22.2176C43.3635 22.2176 46.0314 19.1332 46.0314 14.4996C46.0314 9.86607 43.3635 6.78163 39.334 6.78163Z" fill="#0C1A3D"/>
<path d="M18.7309 12.2024C18.7309 15.3763 16.1592 17.9513 12.9893 17.9513H8.14837L3.89884 22.2062V6.46038H12.9961C16.1661 6.46038 18.7309 9.03534 18.7309 12.2024ZM12.9961 2.55664H0V27.7279H3.89884L9.76429 21.855H12.9893C18.3115 21.855 22.6229 17.5382 22.6229 12.2093C22.6229 6.88036 18.3184 2.56353 12.9961 2.55664Z" fill="#401197"/>
</svg>
